<?xml version="1.0" encoding="UTF-8" standalone="no"?>
<svg width="60px" height="60px" viewBox="0 0 60 60" version="1.1" xmlns="http://www.w3.org/2000/svg" xmlns:xlink="http://www.w3.org/1999/xlink" xmlns:sketch="http://www.bohemiancoding.com/sketch/ns">
    <!-- Generator: Sketch 3.3.2 (12043) - http://www.bohemiancoding.com/sketch -->
    <title>airplane</title>
    <desc>Created with Sketch.</desc>
    <defs></defs>
    <g id="Welcome" stroke="none" stroke-width="1" fill="none" fill-rule="evenodd" sketch:type="MSPage">
        <g id="Desktop-HD" sketch:type="MSArtboardGroup" transform="translate(-531.000000, -908.000000)">
            <g id="Block-Company" sketch:type="MSLayerGroup" transform="translate(489.000000, 640.000000)">
                <g id="airplane" transform="translate(42.000000, 271.000000)" fill="#FED136" sketch:type="MSShapeGroup">
                    <path d="M29.0680986,51.2238806 C29.2323252,50.4029851 28.7396455,48.2686567 28.9038721,46.6268657 C28.9038721,43.5074627 29.0680986,41.7014925 29.7250048,35.2985075 C30.2176845,32.0149254 30.381911,26.5970149 30.2176845,26.5970149 C29.8892314,26.5970149 13.1381237,32.8358209 12.9738971,33 C12.9738971,33 12.4812175,34.4776119 11.8243113,36.2835821 L10.6747255,39.238806 L9.03246003,39.8955224 C8.04710075,40.2238806 7.22596802,40.5522388 7.22596802,40.5522388 C7.22596802,40.5522388 7.06174148,38.4179104 7.06174148,35.9552239 L7.06174148,31.358209 L3.44875746,27.7462687 L0,24.1343284 L1.47803891,23.641791 C2.46339819,23.3134328 3.28453092,23.1492537 3.28453092,23.1492537 C3.44875746,23.1492537 5.25524947,23.9701493 7.39019457,25.119403 C10.1820458,26.4328358 11.1674051,27.0895522 11.4958582,26.9253731 C11.6600848,26.9253731 15.2730688,25.4477612 19.542959,23.8059701 C23.6486226,22.1641791 27.2616066,20.8507463 27.4258332,20.6865672 C27.7542863,20.5223881 27.9185128,20.6865672 16.9153342,9.68656716 C12.4812175,5.08955224 8.70400694,1.14925373 8.53978039,0.985074627 C8.37555384,0.492537313 8.86823348,0 9.68936621,0 C11.1674051,0 16.258428,1.47761194 19.7071855,2.79104478 L21.1852244,3.28358209 L22.0063572,2.95522388 C22.4990368,2.79104478 23.4843961,2.62686567 24.1413023,2.29850746 C27.2616066,1.64179104 28.4111924,2.29850746 26.768927,3.7761194 C26.4404739,4.10447761 25.6193412,4.76119403 24.962435,5.08955224 L23.8128492,5.74626866 L26.2762474,7.2238806 C27.5900597,8.20895522 28.7396455,9.02985075 28.7396455,9.02985075 C28.9038721,9.02985075 29.5607783,8.70149254 30.381911,8.37313433 C31.2030437,8.04477612 32.5168561,7.55223881 33.1737623,7.2238806 C35.6371605,6.56716418 35.9656136,7.55223881 34.3233481,10.1791045 L33.994895,10.6716418 L37.4436525,12.9701493 C39.414371,14.2835821 41.0566365,15.4328358 41.220863,15.4328358 C41.3850896,15.4328358 42.8631285,14.9402985 44.6696205,14.2835821 C52.5524947,11.6567164 58.1361973,10.8358209 58.6288769,11.9850746 C59.1215565,13.7910448 52.8809478,17.7313433 44.6696205,20.6865672 C43.6842612,21.0149254 43.027355,21.3432836 43.027355,21.3432836 C43.027355,21.3432836 41.0566365,29.2238806 41.220863,29.3880597 C41.220863,29.5522388 41.8777692,29.5522388 42.6989019,29.5522388 C44.0127143,29.5522388 44.505394,29.5522388 44.833847,29.880597 C46.311886,30.8656716 43.3558081,32.8358209 39.9070507,33.1641791 L38.7574648,33.3283582 L37.9363321,36.2835821 L37.1151994,39.4029851 L38.9216914,39.5671642 C41.0566365,39.5671642 41.8777692,39.8955224 41.8777692,40.3880597 C41.8777692,41.5373134 39.2501445,42.8507463 36.4582932,43.3432836 C36.2940667,43.3432836 35.9656136,43.8358209 35.6371605,45.1492537 C34.1591216,48.761194 31.3672703,53.6865672 29.8892314,54.5074627 C29.2323252,55 28.9038721,55 28.7396455,54.6716418 C28.4111924,54.0149254 28.9038721,52.5373134 29.0680986,51.2238806 Z" id="Shape"></path>
                </g>
                <g id="Slices" transform="translate(42.000000, 268.000000)"></g>
            </g>
        </g>
    </g>
</svg>