<?xml version="1.0" encoding="UTF-8" standalone="no"?>
<svg width="60px" height="60px" viewBox="0 0 60 60" version="1.1" xmlns="http://www.w3.org/2000/svg" xmlns:xlink="http://www.w3.org/1999/xlink" xmlns:sketch="http://www.bohemiancoding.com/sketch/ns">
    <!-- Generator: Sketch 3.3.2 (12043) - http://www.bohemiancoding.com/sketch -->
    <title>bag</title>
    <desc>Created with Sketch.</desc>
    <defs></defs>
    <g id="Welcome" stroke="none" stroke-width="1" fill="none" fill-rule="evenodd" sketch:type="MSPage">
        <g id="Desktop-HD" sketch:type="MSArtboardGroup" transform="translate(-1170.000000, -909.000000)">
            <g id="Block-Company" sketch:type="MSLayerGroup" transform="translate(489.000000, 640.000000)">
                <g id="bag" transform="translate(688.000000, 272.000000)" fill="#FED136" sketch:type="MSShapeGroup">
                    <path d="M0,52.8531856 C0,52.7063712 6.31301939,13.9473684 6.4598338,13.6537396 L6.6066482,13.3601108 L11.0110803,13.3601108 C14.9750693,13.3601108 15.2686981,13.3601108 15.2686981,13.5069252 C15.2686981,13.6537396 15.2686981,14.534626 15.1218837,15.4155125 C14.9750693,16.2963989 14.8282548,17.7645429 14.8282548,18.6454294 L14.6814404,20.2603878 L14.2409972,20.700831 C13.6537396,21.1412742 13.066482,22.4626039 13.066482,23.0498615 C12.9196676,24.3711911 13.800554,25.6925208 14.9750693,26.2797784 C15.7091413,26.5734072 17.0304709,26.5734072 17.7645429,26.2797784 C18.498615,25.8393352 19.3795014,24.9584488 19.6731302,24.0775623 C19.966759,22.9030471 19.5263158,21.434903 18.6454294,20.700831 L18.2049861,20.4072022 L18.3518006,18.498615 C18.3518006,16.7368421 18.6454294,14.8282548 18.7922438,13.800554 L18.9390582,13.3601108 L22.9030471,13.3601108 L27.0138504,13.3601108 L27.1606648,13.6537396 C27.3074792,14.2409972 27.601108,17.9113573 27.7479224,19.3795014 C27.7479224,20.4072022 27.7479224,20.5540166 27.4542936,20.700831 C27.0138504,20.8476454 26.4265928,22.0221607 26.2797784,22.7562327 C26.132964,24.0775623 26.867036,25.6925208 28.1883657,26.2797784 C28.9224377,26.5734072 30.2437673,26.5734072 30.9778393,26.2797784 C32.1523546,25.6925208 33.033241,24.3711911 32.8864266,23.0498615 C32.8864266,22.4626039 32.299169,21.1412742 31.7119114,20.700831 L31.2714681,20.2603878 L31.1246537,18.6454294 C31.1246537,17.7645429 30.9778393,16.2963989 30.8310249,15.4155125 C30.6842105,14.534626 30.6842105,13.6537396 30.6842105,13.5069252 C30.6842105,13.3601108 30.9778393,13.3601108 34.9418283,13.3601108 L39.3462604,13.3601108 L39.4930748,13.6537396 C39.6398892,13.9473684 45.9529086,52.7063712 46.099723,52.8531856 C46.099723,52.8531856 35.6759003,53 23.0498615,53 C10.2770083,53 0,52.8531856 0,52.8531856 L0,52.8531856 Z M16.2963989,9.8365651 C16.2963989,9.39612188 17.1772853,6.6066482 17.6177285,5.43213296 C20.5540166,-1.76177285 25.6925208,-1.61495845 28.4819945,5.72576177 C28.9224377,6.90027701 29.8033241,9.54293629 29.8033241,9.8365651 L28.0415512,9.8365651 L26.4265928,9.8365651 L26.132964,8.51523546 C25.2520776,5.87257618 24.2243767,3.81717452 23.3434903,3.3767313 C23.0498615,3.2299169 22.9030471,3.2299169 22.6094183,3.3767313 C21.7285319,3.81717452 20.700831,5.87257618 19.8199446,8.51523546 L19.5263158,9.8365651 L17.9113573,9.8365651 L16.2963989,9.8365651 L16.2963989,9.8365651 Z" id="Shape"></path>
                </g>
                <g id="Slices" transform="translate(42.000000, 268.000000)"></g>
            </g>
        </g>
    </g>
</svg>