<?xml version="1.0" encoding="UTF-8" standalone="no"?>
<svg width="60px" height="60px" viewBox="0 0 60 60" version="1.1" xmlns="http://www.w3.org/2000/svg" xmlns:xlink="http://www.w3.org/1999/xlink" xmlns:sketch="http://www.bohemiancoding.com/sketch/ns">
    <!-- Generator: Sketch 3.3.2 (12043) - http://www.bohemiancoding.com/sketch -->
    <title>chief-hat</title>
    <desc>Created with Sketch.</desc>
    <defs></defs>
    <g id="Welcome" stroke="none" stroke-width="1" fill="none" fill-rule="evenodd" sketch:type="MSPage">
        <g id="Desktop-HD" sketch:type="MSArtboardGroup" transform="translate(-1010.000000, -909.000000)">
            <g id="Block-Company" sketch:type="MSLayerGroup" transform="translate(489.000000, 640.000000)">
                <g id="chief" transform="translate(521.000000, 271.000000)" fill="#FED136" sketch:type="MSShapeGroup">
                    <path d="M27.2423398,54.8129252 C21.0584958,54.2517007 16.3788301,52.5680272 13.5376045,49.9489796 L12.7019499,49.0136054 L12.7019499,38.3503401 L12.7019499,27.8741497 L12.0334262,27.8741497 C11.0306407,27.8741497 8.85793872,27.3129252 7.68802228,26.5646259 C4.01114206,24.8809524 1.16991643,21.3265306 0.334261838,17.0238095 C-1.38777878e-17,15.3401361 -1.38777878e-17,12.5340136 0.334261838,10.8503401 C0.668523677,9.16666667 1.50417827,7.10884354 2.67409471,5.6122449 C7.68802228,-1.49659864 18.551532,-1.8707483 25.9052925,4.67687075 L27.2423398,5.98639456 L29.5821727,5.98639456 C31.7548747,5.98639456 31.9220056,5.98639456 35.097493,5.05102041 C39.4428969,3.7414966 41.6155989,3.36734694 44.4568245,3.36734694 C49.8050139,3.18027211 53.6490251,4.86394558 56.6573816,8.23129252 C60.3342618,12.7210884 61.0027855,20.2040816 58.4958217,25.8163265 C56.6573816,29.5578231 52.8133705,31.9897959 48.9693593,31.9897959 L47.9665738,32.1768707 L47.7994429,40.5952381 L47.7994429,49.2006803 L46.7966574,50.1360544 C44.4568245,52.1938776 40.6128134,53.6904762 35.7660167,54.4387755 C33.7604457,54.8129252 29.0807799,55 27.2423398,54.8129252 L27.2423398,54.8129252 Z M33.9275766,50.6972789 C37.6044568,50.3231293 41.448468,49.2006803 43.454039,47.8911565 L44.4568245,47.329932 L44.4568245,39.4727891 L44.4568245,31.6156463 L42.6183844,30.8673469 C39.9442897,29.9319728 38.2729805,28.8095238 35.097493,26.5646259 C30.2506964,22.8231293 26.908078,21.3265306 23.8997214,21.1394558 C22.2284123,20.952381 22.0612813,20.952381 21.2256267,21.5136054 C20.2228412,22.0748299 19.7214485,22.0748299 19.2200557,21.7006803 C18.718663,21.3265306 18.3844011,20.7653061 18.3844011,20.0170068 C18.2172702,19.0816327 18.718663,18.5204082 19.7214485,17.9591837 C23.5654596,15.9013605 29.5821727,17.585034 36.7688022,23.0102041 C40.6128134,26.0034014 42.9526462,27.3129252 45.7938719,27.8741497 C47.1309192,28.2482993 49.8050139,28.2482993 50.9749304,27.8741497 C53.816156,27.1258503 55.6545961,24.6938776 56.3231198,20.952381 C56.9916435,17.0238095 56.1559889,13.0952381 53.816156,10.6632653 C51.9777159,8.60544218 49.8050139,7.67006803 46.2952646,7.10884354 C43.7883008,6.92176871 41.448468,7.10884354 37.7715877,8.23129252 C33.2590529,9.54081633 33.4261838,9.54081633 33.7604457,9.72789116 C34.4289694,10.1020408 36.9359331,10.8503401 37.7715877,10.6632653 C38.6072423,10.6632653 38.7743733,10.8503401 39.275766,11.4115646 C39.7771588,11.9727891 39.9442897,12.1598639 39.7771588,12.9081633 C39.6100279,14.4047619 38.6072423,14.7789116 36.6016713,14.5918367 C32.7576602,13.8435374 27.4094708,11.2244898 24.2339833,8.23129252 C22.3955432,6.54761905 21.2256267,5.79931973 19.5543175,5.05102041 C15.7103064,3.36734694 11.6991643,3.55442177 8.52367688,5.23809524 C7.01949861,5.98639456 5.01392758,8.23129252 4.3454039,9.72789116 C3.00835655,12.9081633 3.17548747,16.6496599 5.1810585,19.6428571 C6.35097493,21.5136054 7.8551532,22.6360544 10.0278552,23.5714286 C11.0306407,23.7585034 11.8662953,23.9455782 15.2089136,24.1326531 C19.0529248,24.1326531 20.3899721,24.3197279 22.2284123,25.0680272 C24.0668524,25.8163265 26.5738162,27.5 27.2423398,28.4353741 C28.2451253,29.744898 27.4094708,31.6156463 26.0724234,31.6156463 C25.5710306,31.6156463 25.0696379,31.2414966 24.2339833,30.4931973 C23.5654596,30.1190476 22.5626741,29.3707483 22.0612813,29.1836735 C20.8913649,28.622449 18.3844011,28.0612245 17.0473538,28.0612245 L16.0445682,28.0612245 L16.2116992,37.7891156 L16.2116992,47.5170068 L17.3816156,48.2653061 C20.8913649,50.3231293 27.5766017,51.4455782 33.9275766,50.6972789 L33.9275766,50.6972789 Z M27.2423398,49.0136054 C26.908078,48.6394558 26.908078,48.2653061 26.908078,43.2142857 C26.908078,37.9761905 26.908078,37.6020408 27.2423398,37.414966 C27.5766017,36.8537415 28.4122563,36.8537415 28.7465181,37.2278912 C28.913649,37.6020408 29.0807799,38.3503401 29.0807799,43.2142857 C29.0807799,48.6394558 28.913649,48.6394558 28.5793872,49.0136054 C28.0779944,49.3877551 27.5766017,49.3877551 27.2423398,49.0136054 L27.2423398,49.0136054 Z M31.9220056,49.0136054 C31.5877437,48.6394558 31.5877437,48.6394558 31.5877437,43.2142857 C31.5877437,37.9761905 31.5877437,37.6020408 31.7548747,37.2278912 C32.2562674,36.8537415 32.9247911,36.8537415 33.4261838,37.414966 C33.5933148,37.6020408 33.7604457,37.9761905 33.7604457,43.2142857 C33.7604457,48.2653061 33.5933148,48.6394558 33.4261838,49.0136054 C32.9247911,49.3877551 32.4233983,49.3877551 31.9220056,49.0136054 L31.9220056,49.0136054 Z M22.729805,48.2653061 C22.2284123,47.8911565 22.2284123,47.1428571 22.2284123,42.0918367 L22.2284123,36.8537415 L22.5626741,36.4795918 C22.729805,36.292517 23.0640669,36.1054422 23.3983287,36.1054422 C23.5654596,36.1054422 23.8997214,36.292517 24.0668524,36.4795918 L24.5682451,36.8537415 L24.5682451,42.0918367 C24.5682451,48.0782313 24.4011142,48.2653061 23.3983287,48.2653061 L22.729805,48.2653061 L22.729805,48.2653061 Z M36.6016713,48.2653061 C36.1002786,47.8911565 36.1002786,47.1428571 36.1002786,42.0918367 L36.1002786,36.8537415 L36.4345404,36.4795918 C36.6016713,36.292517 36.9359331,36.1054422 37.270195,36.1054422 C37.4373259,36.1054422 37.7715877,36.292517 37.9387187,36.4795918 L38.4401114,36.8537415 L38.4401114,42.0918367 C38.4401114,48.0782313 38.2729805,48.2653061 37.270195,48.2653061 L36.6016713,48.2653061 L36.6016713,48.2653061 Z M17.7181347,43.6075998 C17.7158774,42.8655624 17.7158774,41.9406445 17.7158774,40.7823129 C17.7158774,35.3571429 17.7158774,35.3571429 18.0501393,34.9829932 C18.551532,34.6088435 19.0529248,34.6088435 19.5543175,35.170068 C19.7214485,35.3571429 19.8885794,35.7312925 19.8885794,40.9693878 C19.8885794,46.0204082 19.7214485,46.3945578 19.5543175,46.7687075 C19.0529248,47.1428571 18.2172702,47.1428571 17.8830084,46.7687075 C17.7556791,46.4836603 17.7253561,45.9814488 17.7181347,43.6075998 Z M41.1142061,46.7687075 C40.7799443,46.3945578 40.7799443,46.0204082 40.7799443,40.9693878 C40.7799443,35.7312925 40.7799443,35.3571429 41.1142061,35.170068 C41.448468,34.6088435 41.9498607,34.6088435 42.4512535,34.9829932 C42.7855153,35.3571429 42.9526462,35.3571429 42.9526462,40.9693878 C42.9526462,46.3945578 42.7855153,46.3945578 42.4512535,46.7687075 C41.9498607,47.1428571 41.448468,47.1428571 41.1142061,46.7687075 L41.1142061,46.7687075 Z" id="Shape"></path>
                </g>
                <g id="Slices" transform="translate(42.000000, 268.000000)"></g>
            </g>
        </g>
    </g>
</svg>