<?xml version="1.0" encoding="UTF-8" standalone="no"?>
<svg width="60px" height="60px" viewBox="0 0 60 60" version="1.1" xmlns="http://www.w3.org/2000/svg" xmlns:xlink="http://www.w3.org/1999/xlink" xmlns:sketch="http://www.bohemiancoding.com/sketch/ns">
    <!-- Generator: Sketch 3.3.2 (12043) - http://www.bohemiancoding.com/sketch -->
    <title>field</title>
    <desc>Created with Sketch.</desc>
    <defs></defs>
    <g id="Welcome" stroke="none" stroke-width="1" fill="none" fill-rule="evenodd" sketch:type="MSPage">
        <g id="Desktop-HD" sketch:type="MSArtboardGroup" transform="translate(-691.000000, -909.000000)">
            <g id="Block-Company" sketch:type="MSLayerGroup" transform="translate(489.000000, 640.000000)">
                <g id="field" transform="translate(205.000000, 272.000000)" fill="#FED136" sketch:type="MSShapeGroup">
                    <path d="M0.479104478,53.0208955 L0,52.541791 L0,26.6701493 L0,0.798507463 L0.319402985,0.479104478 L0.63880597,0 L26.5104478,0 L52.3820896,0 L52.861194,0.63880597 L53.3402985,1.11791045 L53.180597,26.8298507 L53.180597,52.541791 L52.861194,53.0208955 L52.3820896,53.3402985 L26.6701493,53.3402985 L0.958208955,53.5 L0.479104478,53.0208955 L0.479104478,53.0208955 Z M13.5746269,49.8268657 C14.3731343,47.4313433 16.1298507,44.8761194 18.0462687,43.438806 C19.6432836,42.3208955 20.2820896,41.841791 22.1985075,41.2029851 C23.6358209,40.7238806 23.6358209,40.7238806 26.3507463,40.7238806 C28.9059701,40.7238806 28.9059701,40.7238806 30.5029851,41.2029851 C32.2597015,41.841791 32.8985075,42.3208955 34.4955224,43.438806 C36.4119403,44.8761194 38.1686567,47.4313433 38.9671642,49.8268657 L39.2865672,50.6253731 L44.8761194,50.6253731 L50.4656716,50.6253731 L50.4656716,39.4462687 L50.4656716,28.1074627 L43.5985075,28.1074627 L36.7313433,27.9477612 L36.5716418,28.4268657 C36.4119403,29.5447761 35.7731343,30.9820896 35.2940299,31.9402985 C34.4955224,33.2179104 32.419403,35.2940299 31.141791,35.9328358 C29.0656716,36.8910448 28.4268657,37.0507463 26.1910448,37.0507463 C24.1149254,37.0507463 23.7955224,37.0507463 22.8373134,36.5716418 C20.441791,35.7731343 18.6850746,34.3358209 17.4074627,32.419403 C16.6089552,31.3014925 16.2895522,30.3432836 15.6507463,28.2671642 C15.6507463,28.1074627 14.2134328,27.9477612 9.10298507,27.9477612 L2.71492537,28.1074627 L2.71492537,39.4462687 L2.71492537,50.7850746 L7.98507463,50.6253731 L13.2552239,50.6253731 L13.5746269,49.8268657 L13.5746269,49.8268657 Z M36.2522388,50.3059701 C36.0925373,49.3477612 34.9746269,47.7507463 33.6970149,46.4731343 C31.6208955,44.3970149 29.2253731,43.438806 26.3507463,43.438806 C23.3164179,43.438806 20.9208955,44.3970149 18.8447761,46.4731343 C17.5671642,47.7507463 16.4492537,49.3477612 16.2895522,50.3059701 L16.1298507,50.7850746 L26.3507463,50.7850746 L36.4119403,50.7850746 L36.2522388,50.3059701 L36.2522388,50.3059701 Z M28.1074627,34.1761194 C29.5447761,33.8567164 30.5029851,33.2179104 31.6208955,32.1 C32.5791045,31.141791 33.5373134,29.5447761 33.6970149,28.5865672 L33.8567164,28.1074627 L31.3014925,28.1074627 L28.9059701,28.1074627 L28.5865672,28.4268657 C27.4686567,30.0238806 25.0731343,30.0238806 23.9552239,28.5865672 L23.6358209,27.9477612 L21.080597,28.1074627 L18.5253731,28.1074627 L18.5253731,28.5865672 C18.6850746,29.3850746 19.6432836,31.141791 20.6014925,32.1 C22.6776119,34.0164179 25.3925373,34.8149254 28.1074627,34.1761194 L28.1074627,34.1761194 Z M15.8104478,24.2746269 C15.9701493,23.7955224 16.2895522,22.6776119 16.7686567,21.8791045 C19.3238806,16.6089552 25.5522388,14.5328358 30.8223881,17.2477612 C33.6970149,18.5253731 35.9328358,21.4 36.4119403,24.4343284 L36.7313433,25.3925373 L43.5985075,25.3925373 L50.6253731,25.3925373 L50.6253731,14.0537313 L50.6253731,2.87462687 L45.0358209,2.87462687 C40.0850746,2.87462687 39.4462687,2.87462687 39.4462687,3.03432836 C39.4462687,3.51343284 38.6477612,5.58955224 38.0089552,6.54776119 C36.7313433,8.78358209 34.6552239,10.8597015 32.2597015,11.9776119 C30.1835821,13.0955224 28.7462687,13.4149254 26.3507463,13.4149254 C23.7955224,13.4149254 22.358209,13.0955224 20.2820896,11.9776119 C17.8865672,10.8597015 15.8104478,8.78358209 14.5328358,6.54776119 C13.8940299,5.58955224 13.2552239,3.51343284 13.2552239,3.03432836 C13.2552239,2.87462687 12.4567164,2.87462687 7.98507463,2.87462687 L2.71492537,2.87462687 L2.71492537,14.0537313 L2.71492537,25.3925373 L9.10298507,25.3925373 L15.6507463,25.3925373 L15.8104478,24.2746269 L15.8104478,24.2746269 Z M24.1149254,24.9134328 C24.5940299,24.4343284 25.5522388,24.1149254 26.3507463,24.1149254 C26.9895522,24.1149254 27.9477612,24.4343284 28.4268657,24.9134328 C28.7462687,25.2328358 28.9059701,25.3925373 31.3014925,25.3925373 L33.8567164,25.3925373 L33.6970149,24.7537313 C33.5373134,23.6358209 32.5791045,22.038806 31.6208955,21.080597 C29.2253731,18.6850746 25.5522388,18.0462687 22.5179104,19.6432836 C21.5597015,20.1223881 20.2820896,21.4 19.6432836,22.358209 C19.1641791,23.1567164 18.5253731,24.7537313 18.5253731,25.2328358 C18.5253731,25.2328358 19.6432836,25.3925373 21.080597,25.3925373 C23.6358209,25.3925373 23.7955224,25.2328358 24.1149254,24.9134328 L24.1149254,24.9134328 Z M29.8641791,10.061194 C32.8985075,8.94328358 34.9746269,6.86716418 36.2522388,3.83283582 L36.5716418,2.87462687 L31.461194,2.87462687 L21.080597,2.87462687 L15.9701493,2.87462687 L16.2895522,3.83283582 C17.4074627,6.54776119 19.6432836,8.78358209 22.1985075,9.90149254 C23.7955224,10.5402985 24.5940299,10.5402985 26.6701493,10.5402985 C28.2671642,10.5402985 28.7462687,10.380597 29.8641791,10.061194 L29.8641791,10.061194 Z" id="Shape"></path>
                </g>
                <g id="Slices" transform="translate(42.000000, 268.000000)"></g>
            </g>
        </g>
    </g>
</svg>