<?xml version="1.0" encoding="UTF-8" standalone="no"?>
<svg width="60px" height="60px" viewBox="0 0 60 60" version="1.1" xmlns="http://www.w3.org/2000/svg" xmlns:xlink="http://www.w3.org/1999/xlink" xmlns:sketch="http://www.bohemiancoding.com/sketch/ns">
    <!-- Generator: Sketch 3.3.2 (12043) - http://www.bohemiancoding.com/sketch -->
    <title>services</title>
    <desc>Created with Sketch.</desc>
    <defs></defs>
    <g id="Welcome" stroke="none" stroke-width="1" fill="none" fill-rule="evenodd" sketch:type="MSPage">
        <g id="Desktop-HD" sketch:type="MSArtboardGroup" transform="translate(-851.000000, -909.000000)">
            <g id="Block-Company" sketch:type="MSLayerGroup" transform="translate(489.000000, 640.000000)">
                <g id="service" transform="translate(365.976190, 273.000000)" fill="#FED136" sketch:type="MSShapeGroup">
                    <path d="M4.67767864,50.5491079 C2.86696433,50.2473222 1.35803573,49.0401793 0.603571438,47.3803579 C4.65738559e-14,46.3241078 -0.150892859,44.3625007 0.301785719,43.1553578 C0.754464297,41.7973221 1.35803573,41.0428578 5.28125008,37.572322 L9.05357156,34.2526791 L9.80803586,35.1580362 C11.0151787,36.3651791 13.5803573,39.0812506 15.2401788,40.4392863 L16.5982145,41.6464292 L12.9767859,45.5696435 C9.657143,49.341965 9.50625014,49.4928579 8.29910727,50.0964293 C7.09196439,50.7000008 5.88482152,50.8508936 4.67767864,50.5491079 L4.67767864,50.5491079 Z M35.3089291,49.6437507 C29.4241076,47.5312507 21.7285718,42.4008935 15.3910717,36.3651791 C8.90267871,30.1785719 2.86696433,21.2758932 0.603571438,15.0892859 C-7.49400542e-16,13.1276788 -7.49400542e-16,12.3732145 0.452678578,10.4116073 C0.905357156,8.60089299 1.65982145,6.79017867 2.71607147,5.28125008 C3.77232149,3.62142863 7.24285725,0 7.69553583,0 C7.84642869,0 10.1098216,2.11250003 13.7312502,5.88482152 C18.4089288,10.5625002 19.6160717,11.6187502 19.6160717,12.0714288 C19.4651789,12.3732145 19.1633931,12.8258931 17.9562503,14.0330359 C17.0508931,14.7875002 15.6928574,15.9946431 14.9383931,16.5982145 C13.8821431,17.3526788 13.7312502,17.6544646 13.7312502,17.9562503 C13.8821431,18.1071431 14.1839288,19.0125003 14.6366074,19.9178574 C17.3526788,25.6517861 24.2937504,32.7437505 30.1785719,35.459822 C32.4419648,36.516072 32.2910719,36.516072 33.6491076,34.8562505 C35.0071434,33.1964291 37.8741077,30.3294647 38.1758934,30.4803576 C38.3267863,30.4803576 50.0964293,42.0991078 50.0964293,42.2500006 C50.0964293,42.5517864 46.6258936,46.0223221 45.5696435,46.9276793 C43.4571435,48.4366079 39.9866077,49.7946436 37.7232149,49.9455365 C36.8178577,50.0964293 36.516072,49.9455365 35.3089291,49.6437507 L35.3089291,49.6437507 Z M25.9535718,28.971429 C24.5955361,27.7642861 23.0866075,26.4062504 21.7285718,24.8973218 L20.6723217,23.8410718 L24.8973218,20.0687503 C27.3116076,17.9562503 29.2732147,16.145536 29.5750004,15.8437502 C30.027679,15.3910717 30.027679,14.7875002 29.7258933,13.7312502 C28.8205361,11.3169645 29.7258933,8.14821441 31.6875005,6.18660724 C33.0455362,4.8285715 34.5544648,4.0741072 36.9687506,3.77232149 C37.572322,3.62142863 37.7232149,3.62142863 37.7232149,3.92321434 C37.7232149,4.0741072 37.1196434,5.43214294 36.3651791,6.79017867 C35.7616077,8.14821441 35.1580362,9.50625014 35.1580362,9.80803586 C35.0071434,10.5625002 35.459822,11.6187502 36.2142863,12.2223216 C37.2705363,13.2785716 39.684822,14.1839288 40.8919649,13.8821431 C41.7973221,13.7312502 42.2500006,13.1276788 43.7589292,10.2607144 C44.9660721,7.69553583 45.116965,7.39375011 45.5696435,7.54464297 C45.7205364,7.69553583 46.9276793,9.95892872 47.0785721,10.8642859 C47.6821436,12.9767859 47.229465,15.3910717 45.8714293,17.3526788 C44.9660721,18.5598217 43.7589292,19.4651789 42.4008935,20.0687503 C41.1937506,20.5214289 38.7794649,20.5214289 37.2705363,20.2196432 C36.2142863,19.9178574 36.0633934,19.9178574 35.7616077,20.2196432 C35.6107148,20.370536 33.4982148,22.6339289 31.2348219,25.1991075 C28.971429,27.6133933 27.1607147,29.7258933 27.0098218,29.7258933 C26.858929,29.7258933 26.4062504,29.4241076 25.9535718,28.971429 L25.9535718,28.971429 Z" id="Shape"></path>
                </g>
                <g id="Slices" transform="translate(42.000000, 268.000000)"></g>
            </g>
        </g>
    </g>
</svg>