<?xml version="1.0" encoding="UTF-8" standalone="no"?>
<svg width="60px" height="60px" viewBox="0 0 60 60" version="1.1" xmlns="http://www.w3.org/2000/svg" xmlns:xlink="http://www.w3.org/1999/xlink" xmlns:sketch="http://www.bohemiancoding.com/sketch/ns">
    <!-- Generator: Sketch 3.3.2 (12043) - http://www.bohemiancoding.com/sketch -->
    <title>student</title>
    <desc>Created with Sketch.</desc>
    <defs></defs>
    <g id="Welcome" stroke="none" stroke-width="1" fill="none" fill-rule="evenodd" sketch:type="MSPage">
        <g id="Desktop-HD" sketch:type="MSArtboardGroup" transform="translate(-1330.000000, -909.000000)">
            <g id="Block-Company" sketch:type="MSLayerGroup" transform="translate(489.000000, 640.000000)">
                <g id="education" transform="translate(842.000000, 271.000000)" fill="#FED136" sketch:type="MSShapeGroup">
                    <path d="M26.8567251,55 C26.6959064,55 26.0526316,54.6783626 25.4093567,54.5175439 C20.1023392,52.9093567 15.4385965,48.7280702 13.5087719,44.2251462 C13.1871345,43.0994152 13.0263158,42.7777778 12.5438596,42.6169591 C10.6140351,41.6520468 8.3625731,39.5614035 7.39766082,37.7923977 C7.07602339,36.8274854 6.91520468,36.505848 6.91520468,35.2192982 C6.75438596,33.2894737 7.07602339,32.1637427 7.71929825,30.877193 C8.20175439,29.751462 9.48830409,28.3040936 10.2923977,27.8216374 L10.9356725,27.6608187 L10.9356725,23.1578947 C10.9356725,19.7807018 10.9356725,18.8157895 11.0964912,18.9766082 C13.8304094,19.9415205 27.0175439,24.7660819 27.6608187,24.9269006 C28.625731,25.248538 28.7865497,25.248538 29.751462,24.9269006 C30.3947368,24.7660819 43.5818713,19.9415205 46.3157895,18.9766082 C46.4766082,18.8157895 46.6374269,19.7807018 46.6374269,23.1578947 L46.6374269,27.5 L47.119883,27.9824561 C49.5321637,29.5906433 50.6578947,32.002924 50.497076,35.0584795 C50.497076,36.505848 50.497076,36.8274854 49.8538012,37.9532164 C49.0497076,39.7222222 47.119883,41.6520468 45.5116959,42.2953216 C44.3859649,42.9385965 44.3859649,42.9385965 43.9035088,43.9035088 C42.2953216,48.5672515 37.7923977,52.5877193 32.1637427,54.5175439 C31.0380117,54.8391813 30.5555556,55 28.9473684,55 L26.8567251,55 L26.8567251,55 Z M30.7163743,50.8187135 C33.2894737,50.0146199 35.5409357,48.5672515 37.6315789,46.4766082 C39.2397661,44.8684211 40.0438596,43.4210526 40.6871345,41.3304094 C41.0087719,40.0438596 41.3304094,39.7222222 42.6169591,39.2397661 C43.9035088,38.9181287 44.8684211,38.2748538 45.6725146,37.3099415 C46.6374269,36.1842105 46.7982456,35.7017544 46.6374269,34.4152047 C46.4766082,32.6461988 45.8333333,31.5204678 44.5467836,31.0380117 C43.2602339,30.7163743 42.9385965,30.3947368 42.7777778,28.4649123 C42.6169591,27.8216374 42.4561404,27.1783626 42.4561404,27.1783626 C42.4561404,27.1783626 39.8830409,27.3391813 32.3245614,28.3040936 L28.625731,28.7865497 L21.871345,27.9824561 C18.0116959,27.5 14.9561404,27.1783626 14.9561404,27.1783626 C14.9561404,27.1783626 14.7953216,27.6608187 14.6345029,28.3040936 C14.4736842,30.3947368 14.1520468,30.7163743 12.7046784,31.1988304 C12.0614035,31.3596491 11.7397661,31.5204678 11.4181287,32.002924 C10.7748538,32.9678363 10.4532164,34.8976608 10.9356725,36.0233918 C11.4181287,37.3099415 13.5087719,38.9181287 14.7953216,39.2397661 C15.7602339,39.5614035 16.4035088,40.2046784 16.7251462,41.3304094 C17.8508772,45.0292398 20.4239766,47.9239766 24.2836257,49.8538012 C26.8567251,51.3011696 28.7865497,51.4619883 30.7163743,50.8187135 L30.7163743,50.8187135 Z M52.4269006,32.6461988 C50.8187135,30.0730994 49.8538012,27.8216374 49.8538012,26.5350877 C49.8538012,26.2134503 49.8538012,25.7309942 50.0146199,25.4093567 C50.3362573,24.7660819 50.3362573,24.6052632 50.0146199,23.9619883 C49.5321637,22.8362573 49.6929825,21.5497076 50.6578947,20.4239766 L51.1403509,19.7807018 L50.9795322,17.0467836 C50.9795322,14.7953216 50.9795322,13.9912281 50.6578947,13.6695906 C50.497076,13.3479532 50.3362573,13.1871345 50.3362573,13.1871345 C50.1754386,13.1871345 47.119883,14.1520468 43.5818713,15.4385965 C31.8421053,19.619883 29.4298246,20.4239766 28.7865497,20.4239766 C27.8216374,20.4239766 27.1783626,20.1023392 18.9766082,17.2076023 C2.4122807,11.4181287 0.964912281,10.9356725 0.48245614,10.2923977 C-0.321637427,9.48830409 6.96387392e-14,8.20175439 1.28654971,7.71929825 C1.92982456,7.39766082 18.9766082,2.57309942 24.7660819,0.964912281 C26.6959064,0.48245614 28.3040936,0 28.625731,0 C29.4298246,0 31.6812865,0.643274854 45.1900585,4.50292398 C55.4824561,7.55847953 56.2865497,7.71929825 56.7690058,8.20175439 C57.251462,8.68421053 57.4122807,8.84502924 57.4122807,9.32748538 C57.4122807,10.1315789 56.7690058,10.6140351 55.6432749,11.2573099 C55,11.4181287 54.6783626,11.5789474 54.6783626,11.5789474 C54.6783626,11.5789474 54.6783626,12.0614035 54.8391813,12.5438596 C55.1608187,13.3479532 55.3216374,14.3128655 55.3216374,16.8859649 C55.4824561,20.1023392 55.4824561,20.1023392 55.9649123,20.745614 C56.4473684,21.7105263 56.6081871,22.6754386 56.2865497,23.8011696 C56.125731,24.2836257 56.125731,24.6052632 56.125731,24.7660819 C56.2865497,24.9269006 56.4473684,25.4093567 56.6081871,25.8918129 C56.7690058,26.8567251 56.6081871,27.8216374 55.8040936,29.4298246 C55.3216374,30.3947368 53.7134503,33.2894737 53.2309942,33.6111111 C53.2309942,33.6111111 52.9093567,33.2894737 52.4269006,32.6461988 L52.4269006,32.6461988 Z M30.5555556,9.48830409 C31.1988304,9.32748538 31.5204678,9.16666667 31.6812865,8.84502924 C32.002924,8.52339181 32.002924,8.3625731 31.6812865,8.04093567 C31.3596491,7.39766082 30.3947368,7.07602339 28.9473684,7.07602339 C27.3391813,7.07602339 26.5350877,7.23684211 26.0526316,7.71929825 C25.4093567,8.20175439 25.4093567,8.52339181 25.7309942,9.00584795 C26.5350877,9.64912281 28.9473684,9.97076023 30.5555556,9.48830409 L30.5555556,9.48830409 Z M19.619883,37.3099415 C18.8157895,36.8274854 18.3333333,36.3450292 18.0116959,35.5409357 C16.8859649,32.9678363 19.619883,30.3947368 22.1929825,31.5204678 C23.4795322,32.1637427 24.122807,33.128655 23.9619883,34.4152047 C23.9619883,36.6666667 21.7105263,38.2748538 19.619883,37.3099415 L19.619883,37.3099415 Z M35.2192982,37.3099415 C33.2894737,36.3450292 32.8070175,33.7719298 34.0935673,32.3245614 C35.7017544,30.7163743 38.4356725,31.0380117 39.4005848,33.128655 C40.5263158,35.7017544 37.7923977,38.4356725 35.2192982,37.3099415 L35.2192982,37.3099415 Z" id="Shape"></path>
                </g>
                <g id="Slices" transform="translate(42.000000, 268.000000)"></g>
            </g>
        </g>
    </g>
</svg>